<svg xmlns="http://www.w3.org/2000/svg" width="256" height="62.445" viewBox="0 0 256 62.445"><defs><style>.\37 2e2783e-48e7-45e9-838f-8ec4cc8d3186{fill:#24292e;}.\37 4928948-8838-4925-81d7-db0d30c9a9b2{fill:#d66b1d;}.a24a7080-8304-4d0f-99ee-c1f3b1c379fd{fill:#fff;}.d57a8b29-0b2b-4daa-9171-4bd2e0b47235{fill:none;}</style></defs><title>servarr_l_text_</title><g id="115975ef-6e4b-4159-8df9-2fbce1b21fcd" data-name="Layer 2"><g id="87e5e5cd-1718-47ce-b1fb-79321050028b" data-name="servarr"><g id="bc83f324-c50b-42a5-8a40-0eeb508d262e" data-name="servarr_l_text_"><g id="9c591bab-641f-4034-b55f-fc4fb900c01d" data-name="circle logo"><path class="72e2783e-48e7-45e9-838f-8ec4cc8d3186" d="M31.223,61.972A30.75,30.75,0,1,1,61.972,31.223,30.784,30.784,0,0,1,31.223,61.972Z"/><path class="74928948-8838-4925-81d7-db0d30c9a9b2" d="M31.222.946A30.277,30.277,0,1,1,.946,31.222,30.311,30.311,0,0,1,31.222.946m0-.946A31.223,31.223,0,1,0,62.445,31.222,31.223,31.223,0,0,0,31.222,0Z"/><circle class="a24a7080-8304-4d0f-99ee-c1f3b1c379fd" cx="31.726" cy="31.726" r="26.69"/><polygon class="74928948-8838-4925-81d7-db0d30c9a9b2" points="23.165 27.108 23.165 36.412 31.222 41.064 39.28 36.412 39.28 27.108 31.222 22.456 23.165 27.108"/><polygon class="72e2783e-48e7-45e9-838f-8ec4cc8d3186" points="42.301 13.974 42.301 18.045 45.827 20.08 49.352 18.045 49.352 13.974 45.827 11.939 42.301 13.974"/><polygon class="72e2783e-48e7-45e9-838f-8ec4cc8d3186" points="12.086 13.974 12.086 18.045 15.611 20.08 19.136 18.045 19.136 13.974 15.611 11.939 12.086 13.974"/><polygon class="72e2783e-48e7-45e9-838f-8ec4cc8d3186" points="12.086 44.286 12.086 48.357 15.611 50.392 19.136 48.357 19.136 44.286 15.611 42.251 12.086 44.286"/><polygon class="72e2783e-48e7-45e9-838f-8ec4cc8d3186" points="42.301 44.286 42.301 48.357 45.827 50.392 49.352 48.357 49.352 44.286 45.827 42.251 42.301 44.286"/><path class="d57a8b29-0b2b-4daa-9171-4bd2e0b47235" d="M49.967,19.3l-3.315,1.914L43.7,19.507l-5.648,5.648-.91-.526,5.648-5.647L42.3,18.7V13.679l1.406-.811a22.153,22.153,0,0,0-24.969,0l1.406.811V18.7l-.529.3,5.647,5.648-.91.525L18.7,19.533l-2.912,1.682L12.478,19.3a22.172,22.172,0,0,0,0,23.922l3.315-1.914,2.957,1.707,5.193-5.192.91.525L19.66,43.542l.484.279v5.023l-1.406.812a22.153,22.153,0,0,0,24.969,0L42.3,48.844V43.821l.438-.253-5.192-5.193.91-.525,5.192,5.193,3-1.734,3.315,1.914a22.172,22.172,0,0,0,0-23.922ZM31.42,32.02,30.7,31.3l.722-.722.721.722Z"/><path class="74928948-8838-4925-81d7-db0d30c9a9b2" d="M53.829,31.262a22.248,22.248,0,0,1-3.523,12.029l.625.36a23.017,23.017,0,0,0,0-24.779l-.625.361A22.246,22.246,0,0,1,53.829,31.262Z"/><path class="74928948-8838-4925-81d7-db0d30c9a9b2" d="M31.456,8.889a22.239,22.239,0,0,1,12.555,3.875l.693-.4a23.007,23.007,0,0,0-26.5,0l.693.4A22.234,22.234,0,0,1,31.456,8.889Z"/><path class="74928948-8838-4925-81d7-db0d30c9a9b2" d="M9.083,31.262a22.245,22.245,0,0,1,3.522-12.029l-.625-.361a23.017,23.017,0,0,0,0,24.779l.625-.36A22.247,22.247,0,0,1,9.083,31.262Z"/><path class="74928948-8838-4925-81d7-db0d30c9a9b2" d="M31.456,53.635A22.242,22.242,0,0,1,18.9,49.76l-.693.4a23.012,23.012,0,0,0,26.5,0l-.693-.4A22.247,22.247,0,0,1,31.456,53.635Z"/><polygon class="74928948-8838-4925-81d7-db0d30c9a9b2" points="25.462 24.618 19.782 18.939 18.867 19.467 24.547 25.147 25.462 24.618"/><polygon class="74928948-8838-4925-81d7-db0d30c9a9b2" points="37.816 38.415 43.037 43.637 43.953 43.109 38.731 37.887 37.816 38.415"/><polygon class="74928948-8838-4925-81d7-db0d30c9a9b2" points="24.135 37.861 18.913 43.083 19.828 43.611 25.05 38.389 24.135 37.861"/><polygon class="74928948-8838-4925-81d7-db0d30c9a9b2" points="38.319 25.12 43.998 19.441 43.083 18.912 37.404 24.592 38.319 25.12"/><rect class="74928948-8838-4925-81d7-db0d30c9a9b2" x="30.909" y="30.788" width="1.021" height="1.021" transform="translate(-12.928 31.384) rotate(-45)"/><path class="72e2783e-48e7-45e9-838f-8ec4cc8d3186" d="M69.869,44.876l.545-4.31a49.234,49.234,0,0,0,7.675.718c4.859,0,6.948-.9,6.948-2.963,0-1.437-.772-2.02-2.361-2.424l-5.541-1.392c-4.745-1.19-6.9-2.649-6.9-6.24,0-5.208,3.815-7.408,12.807-7.408a41.59,41.59,0,0,1,6.358.449l-.5,4.13c-2.452-.224-4.223-.314-5.994-.314-5.4,0-7.675.853-7.675,2.918,0,1.392.976,1.841,3.043,2.335l4.45,1.077c5.041,1.212,7.312,2.963,7.312,6.779,0,5.118-3.588,7.318-11.944,7.318A36.427,36.427,0,0,1,69.869,44.876Z"/><path class="72e2783e-48e7-45e9-838f-8ec4cc8d3186" d="M96.668,33.158c0-7.767,3.951-12.3,10.853-12.3,6.494,0,10.218,4,10.218,11.4,0,1.122-.045,2.109-.136,3.052H101.345c.84,3.973,3.883,6.061,8.72,6.061a29.251,29.251,0,0,0,5.9-.629l.591,4.176a37.164,37.164,0,0,1-7.04.628C101.3,45.549,96.668,41.15,96.668,33.158Zm4.495-1.481H113.38c0-4.265-2.18-6.644-5.813-6.644C103.843,25.033,101.55,27.434,101.163,31.677Z"/><path class="72e2783e-48e7-45e9-838f-8ec4cc8d3186" d="M122.649,41.194h5.358V25.212h-4.45V21.306h8.356l.817,6.106h.546c.272-4.4,2.452-6.555,6.629-6.555,4.951,0,7.085,2.649,7.085,8.934h-4.768c0-3.457-1-4.893-3.315-4.893-4.088,0-6.086,3.591-6.086,9.966v6.33h5.9V45.1H122.649Z"/><path class="72e2783e-48e7-45e9-838f-8ec4cc8d3186" d="M149.9,21.306h5.132l6.585,19.754h.409l6.357-19.754h5.132L165.023,45.1h-6.4Z"/><path class="72e2783e-48e7-45e9-838f-8ec4cc8d3186" d="M177.517,38.68c0-5.028,3.951-7.812,10.9-7.812a22.871,22.871,0,0,1,4.542.382v-1.1c0-3.164-2.271-4.579-6.721-4.691l-5.768-.157.454-4.22,4.859.067c7.947.113,11.762,3.435,11.762,9.719V40.79l4.088.494V45.1l-7.721.224-.226-5.252h-.478c-.34,3.659-3.315,5.477-7.788,5.477C180.4,45.549,177.517,43.058,177.517,38.68Zm15.441-2.11V34.909a31.8,31.8,0,0,0-4.633-.225c-4.109,0-6.266,1.213-6.266,3.547,0,2.222,1.5,3.5,4.132,3.5C190.687,41.733,192.958,39.084,192.958,36.57Z"/><path class="72e2783e-48e7-45e9-838f-8ec4cc8d3186" d="M204.406,41.194h5.359V25.212h-4.451V21.306h8.357l.817,6.106h.545c.272-4.4,2.452-6.555,6.63-6.555,4.95,0,7.085,2.649,7.085,8.934h-4.769c0-3.457-1-4.893-3.315-4.893-4.087,0-6.085,3.591-6.085,9.966v6.33h5.9V45.1H204.406Z"/><path class="72e2783e-48e7-45e9-838f-8ec4cc8d3186" d="M231.659,41.194h5.358V25.212h-4.45V21.306h8.356l.817,6.106h.545c.273-4.4,2.453-6.555,6.631-6.555,4.95,0,7.084,2.649,7.084,8.934h-4.768c0-3.457-1-4.893-3.316-4.893-4.086,0-6.085,3.591-6.085,9.966v6.33h5.9V45.1H231.659Z"/></g></g></g></g></svg>