<svg xmlns="http://www.w3.org/2000/svg" width="256" height="256" viewBox="0 0 256 256"><defs><style>.\31 981f5f9-01a3-41d3-a139-2c8b2951167d{fill:#fff;}.e5d43569-9302-4e95-8b21-1fe47c00ca59{fill:#d66b1d;}.\39 69123ab-5702-4d6b-90b0-0207768c706a{fill:#24292e;}.ebfddd12-c823-4391-9317-15826f0194a5{fill:none;}</style></defs><title>servarr_dark_</title><g id="66fc9b9e-3962-47b9-b3ad-be001ecb2777" data-name="Layer 2"><g id="caecedb3-9184-414d-8329-9e3ba7c7dfe9" data-name="servarr"><g id="a83994c9-5a8e-43c2-9b75-ad1ec357cca0" data-name="servarr_dark_"><circle class="1981f5f9-01a3-41d3-a139-2c8b2951167d" cx="128" cy="128" r="126.061"/><path class="e5d43569-9302-4e95-8b21-1fe47c00ca59" d="M128,3.879a124.121,124.121,0,0,1,87.767,211.888A124.121,124.121,0,0,1,40.233,40.233,123.311,123.311,0,0,1,128,3.879M128,0A128,128,0,1,0,256,128,128,128,0,0,0,128,0Z"/><circle class="969123ab-5702-4d6b-90b0-0207768c706a" cx="128" cy="128" r="111"/><polygon class="e5d43569-9302-4e95-8b21-1fe47c00ca59" points="95 110.183 95 148.288 128 167.34 161 148.288 161 110.183 128 91.13 95 110.183"/><polygon class="1981f5f9-01a3-41d3-a139-2c8b2951167d" points="177 56.14 177 73.461 192 82.121 207 73.461 207 56.14 192 47.48 177 56.14"/><polygon class="1981f5f9-01a3-41d3-a139-2c8b2951167d" points="48 56.14 48 73.461 63 82.121 78 73.461 78 56.14 63 47.48 48 56.14"/><polygon class="1981f5f9-01a3-41d3-a139-2c8b2951167d" points="48 181.952 48 199.273 63 207.933 78 199.273 78 181.952 63 173.292 48 181.952"/><polygon class="1981f5f9-01a3-41d3-a139-2c8b2951167d" points="177 181.952 177 199.273 192 207.933 207 199.273 207 181.952 192 173.292 177 181.952"/><path class="ebfddd12-c823-4391-9317-15826f0194a5" d="M205.829,78.017l-13.765,7.948-12.279-7.089-23.449,23.448-3.778-2.181,23.449-23.449L174,75.536V54.678l5.836-3.37a91.977,91.977,0,0,0-103.672,0L82,54.678V75.536L79.805,76.8l23.448,23.449-3.778,2.181L76.026,78.985l-12.09,6.98L50.171,78.017a92.076,92.076,0,0,0,0,99.327L63.936,169.4l12.279,7.089,21.56-21.559,3.778,2.181-21.56,21.56L82,179.825v20.858l-5.836,3.37a91.977,91.977,0,0,0,103.672,0L174,200.683V179.825l1.818-1.049-21.56-21.56,3.778-2.181L179.6,176.6l12.468-7.2,13.765,7.948a92.076,92.076,0,0,0,0-99.327ZM127.5,130.826l-3-3,3-3,3,3Z"/><path class="e5d43569-9302-4e95-8b21-1fe47c00ca59" d="M220.507,127.68a92.349,92.349,0,0,1-14.619,49.927l2.593,1.5a95.539,95.539,0,0,0,0-102.849l-2.594,1.5A92.348,92.348,0,0,1,220.507,127.68Z"/><path class="e5d43569-9302-4e95-8b21-1fe47c00ca59" d="M127.645,34.819A92.316,92.316,0,0,1,179.757,50.9l2.876-1.661a95.5,95.5,0,0,0-109.975,0L75.534,50.9A92.315,92.315,0,0,1,127.645,34.819Z"/><path class="e5d43569-9302-4e95-8b21-1fe47c00ca59" d="M34.784,127.68A92.34,92.34,0,0,1,49.4,77.754l-2.594-1.5a95.542,95.542,0,0,0,0,102.849l2.594-1.5A92.341,92.341,0,0,1,34.784,127.68Z"/><path class="e5d43569-9302-4e95-8b21-1fe47c00ca59" d="M127.645,220.542a92.315,92.315,0,0,1-52.111-16.084l-2.876,1.661a95.5,95.5,0,0,0,109.975,0l-2.876-1.661A92.318,92.318,0,0,1,127.645,220.542Z"/><polygon class="e5d43569-9302-4e95-8b21-1fe47c00ca59" points="102.767 100.106 79.194 76.533 75.396 78.726 98.969 102.299 102.767 100.106"/><polygon class="e5d43569-9302-4e95-8b21-1fe47c00ca59" points="154.043 157.373 175.717 179.047 179.515 176.854 157.841 155.18 154.043 157.373"/><polygon class="e5d43569-9302-4e95-8b21-1fe47c00ca59" points="97.26 155.07 75.586 176.745 79.384 178.938 101.058 157.263 97.26 155.07"/><polygon class="e5d43569-9302-4e95-8b21-1fe47c00ca59" points="156.132 102.19 179.705 78.616 175.907 76.423 152.334 99.997 156.132 102.19"/><rect class="e5d43569-9302-4e95-8b21-1fe47c00ca59" x="125.378" y="125.712" width="4.236" height="4.236" transform="translate(-53.047 127.594) rotate(-45)"/></g></g></g></svg>