<svg xmlns="http://www.w3.org/2000/svg" width="135" height="17.909" viewBox="0 0 135 17.909"><defs><style>.a5ad7208-d476-4beb-8649-3e1922beca30{fill:#24292e;}</style></defs><title>servarr_wordmark</title><g id="98c09aa2-a323-4d91-9410-7368f44f504f" data-name="Layer 2"><g id="0f6e04c5-2e06-4560-86b2-5ac5042b1ff5" data-name="servarr"><g id="8a034645-e7dd-4a70-a0b3-a781cd891b02" data-name="servarr_wordmark"><path class="a5ad7208-d476-4beb-8649-3e1922beca30" d="M0,17.42l.4-3.126a35.635,35.635,0,0,0,5.567.521c3.524,0,5.039-.651,5.039-2.149,0-1.042-.559-1.465-1.712-1.758L5.27,9.9C1.828,9.036.264,7.977.264,5.373.264,1.6,3.03,0,9.552,0a30.12,30.12,0,0,1,4.611.326l-.362,3c-1.778-.162-3.063-.228-4.348-.228-3.919,0-5.566.619-5.566,2.117,0,1.009.708,1.335,2.207,1.693l3.228.782c3.656.879,5.3,2.149,5.3,4.916,0,3.712-2.6,5.308-8.663,5.308A26.326,26.326,0,0,1,0,17.42Z"/><path class="a5ad7208-d476-4beb-8649-3e1922beca30" d="M19.437,8.922C19.437,3.289,22.3,0,27.309,0c4.71,0,7.411,2.9,7.411,8.271,0,.814-.033,1.53-.1,2.214H22.829c.61,2.881,2.816,4.4,6.325,4.4a21.26,21.26,0,0,0,4.281-.456l.429,3.028a26.894,26.894,0,0,1-5.106.456C22.8,17.909,19.437,14.718,19.437,8.922ZM22.7,7.847h8.86c0-3.093-1.581-4.819-4.216-4.819C24.641,3.028,22.978,4.77,22.7,7.847Z"/><path class="a5ad7208-d476-4beb-8649-3e1922beca30" d="M38.281,14.75h3.886V3.159H38.94V.326H45l.593,4.428h.395C46.186,1.563,47.767,0,50.8,0c3.591,0,5.139,1.921,5.139,6.48H52.477c0-2.508-.724-3.55-2.4-3.55-2.965,0-4.414,2.605-4.414,7.229V14.75h4.282v2.833H38.281Z"/><path class="a5ad7208-d476-4beb-8649-3e1922beca30" d="M58.047.326h3.722l4.776,14.327h.3L71.453.326h3.722l-6.16,17.257H64.371Z"/><path class="a5ad7208-d476-4beb-8649-3e1922beca30" d="M78.077,12.927c0-3.647,2.865-5.666,7.905-5.666a16.6,16.6,0,0,1,3.294.277v-.8c0-2.295-1.647-3.321-4.875-3.4l-4.183-.114L80.547.163l3.524.049C89.835.293,92.6,2.7,92.6,7.261v7.2l2.965.358v2.768l-5.6.163-.164-3.81h-.346c-.247,2.654-2.4,3.973-5.649,3.973C80.168,17.909,78.077,16.1,78.077,12.927Zm11.2-1.53v-1.2a23.089,23.089,0,0,0-3.36-.163c-2.981,0-4.545.879-4.545,2.572,0,1.612,1.086,2.54,3,2.54C87.629,15.141,89.276,13.22,89.276,11.4Z"/><path class="a5ad7208-d476-4beb-8649-3e1922beca30" d="M97.579,14.75h3.887V3.159H98.238V.326H104.3l.592,4.428h.4C105.484,1.563,107.065,0,110.1,0c3.59,0,5.138,1.921,5.138,6.48h-3.459c0-2.508-.724-3.55-2.4-3.55-2.964,0-4.414,2.605-4.414,7.229V14.75h4.282v2.833H97.579Z"/><path class="a5ad7208-d476-4beb-8649-3e1922beca30" d="M117.345,14.75h3.887V3.159H118V.326h6.061l.592,4.428h.4C125.25,1.563,126.831,0,129.862,0,133.452,0,135,1.921,135,6.48h-3.459c0-2.508-.724-3.55-2.4-3.55-2.964,0-4.414,2.605-4.414,7.229V14.75h4.282v2.833h-11.66Z"/></g></g></g></svg>