<svg xmlns="http://www.w3.org/2000/svg" width="256" height="61.915" viewBox="0 0 256 61.915"><defs><style>.\33 cf894db-16b1-42ae-bce4-b4aec1b095b3{fill:#fff;}.\39 a2ba950-299a-4f5c-9e0e-af0052ac4237{fill:#d66b1d;}.b8b15d6f-ed24-462e-9a40-1e59a6b3abb7{fill:#24292e;}.\34 c30fec3-54e1-4440-b31c-bb93b0e7008b{fill:none;}</style></defs><title>servarr_d_text_</title><g id="ad46eb5d-e967-4193-ab6e-4f73a4972489" data-name="Layer 2"><g id="7cd4b953-552a-4791-9b2c-bc82accb8799" data-name="servarr"><g id="2b30c387-564d-4758-8ba8-17b9b81efc51" data-name="servarr_d_text_"><g id="9f1c8a69-3e2b-4179-88b5-4441622d71ac" data-name="circle logo"><path class="3cf894db-16b1-42ae-bce4-b4aec1b095b3" d="M30.958,61.446A30.489,30.489,0,1,1,61.446,30.957,30.523,30.523,0,0,1,30.958,61.446Z"/><path class="9a2ba950-299a-4f5c-9e0e-af0052ac4237" d="M30.957.938A30.02,30.02,0,1,1,.938,30.957,30.054,30.054,0,0,1,30.957.938m0-.938A30.958,30.958,0,1,0,61.915,30.957,30.957,30.957,0,0,0,30.957,0Z"/><circle class="b8b15d6f-ed24-462e-9a40-1e59a6b3abb7" cx="31.457" cy="30.458" r="26.464"/><polygon class="9a2ba950-299a-4f5c-9e0e-af0052ac4237" points="22.968 26.654 22.968 35.879 30.957 40.491 38.946 35.879 38.946 26.654 30.957 22.041 22.968 26.654"/><polygon class="3cf894db-16b1-42ae-bce4-b4aec1b095b3" points="42.941 13.569 42.941 17.605 46.436 19.623 49.931 17.605 49.931 13.569 46.436 11.551 42.941 13.569"/><polygon class="3cf894db-16b1-42ae-bce4-b4aec1b095b3" points="11.984 13.569 11.984 17.605 15.479 19.623 18.974 17.605 18.974 13.569 15.479 11.551 11.984 13.569"/><polygon class="3cf894db-16b1-42ae-bce4-b4aec1b095b3" points="11.984 43.804 11.984 47.84 15.479 49.858 18.974 47.84 18.974 43.804 15.479 41.786 11.984 43.804"/><polygon class="3cf894db-16b1-42ae-bce4-b4aec1b095b3" points="42.941 43.804 42.941 47.84 46.436 49.858 49.931 47.84 49.931 43.804 46.436 41.786 42.941 43.804"/><path class="4c30fec3-54e1-4440-b31c-bb93b0e7008b" d="M49.543,18.965l-3.287,1.9L43.324,19.17l-5.6,5.6-.9-.521,5.6-5.6-.479-.276V13.392l1.394-.8a21.966,21.966,0,0,0-24.757,0l1.394.8v4.981l-.525.3,5.6,5.6-.9.521-5.6-5.6-2.887,1.667-3.287-1.9a21.987,21.987,0,0,0,0,23.72l3.287-1.9,2.932,1.693,5.149-5.149.9.521L19.493,43l.48.276v4.981l-1.394.8a21.966,21.966,0,0,0,24.757,0l-1.394-.8V43.277l.434-.25-5.148-5.149.9-.521,5.149,5.149,2.977-1.719,3.287,1.9a21.987,21.987,0,0,0,0-23.72ZM31.574,31.581l-.72-.72.72-.72.72.72Z"/><path class="9a2ba950-299a-4f5c-9e0e-af0052ac4237" d="M53.926,30.825a22.189,22.189,0,0,1-3.513,12l.624.36a22.963,22.963,0,0,0,0-24.716l-.624.36A22.189,22.189,0,0,1,53.926,30.825Z"/><path class="9a2ba950-299a-4f5c-9e0e-af0052ac4237" d="M31.61,8.508a22.177,22.177,0,0,1,12.523,3.866l.692-.4a22.953,22.953,0,0,0-26.43,0l.691.4A22.183,22.183,0,0,1,31.61,8.508Z"/><path class="9a2ba950-299a-4f5c-9e0e-af0052ac4237" d="M9.293,30.825a22.189,22.189,0,0,1,3.514-12l-.624-.36a22.963,22.963,0,0,0,0,24.716l.624-.36A22.189,22.189,0,0,1,9.293,30.825Z"/><path class="9a2ba950-299a-4f5c-9e0e-af0052ac4237" d="M31.61,53.142a22.183,22.183,0,0,1-12.524-3.866l-.691.4a22.953,22.953,0,0,0,26.43,0l-.692-.4A22.177,22.177,0,0,1,31.61,53.142Z"/><polygon class="9a2ba950-299a-4f5c-9e0e-af0052ac4237" points="25.631 24.198 19.966 18.533 19.053 19.06 24.718 24.725 25.631 24.198"/><polygon class="9a2ba950-299a-4f5c-9e0e-af0052ac4237" points="37.954 37.961 43.163 43.17 44.075 42.643 38.867 37.434 37.954 37.961"/><polygon class="9a2ba950-299a-4f5c-9e0e-af0052ac4237" points="24.308 37.407 19.099 42.616 20.012 43.143 25.22 37.934 24.308 37.407"/><polygon class="9a2ba950-299a-4f5c-9e0e-af0052ac4237" points="38.456 24.699 44.121 19.034 43.208 18.507 37.543 24.172 38.456 24.699"/><rect class="9a2ba950-299a-4f5c-9e0e-af0052ac4237" x="31.065" y="30.352" width="1.018" height="1.018" transform="translate(-12.574 31.365) rotate(-45)"/><path class="3cf894db-16b1-42ae-bce4-b4aec1b095b3" d="M69.952,44.572l.544-4.307a49.356,49.356,0,0,0,7.674.718c4.859,0,6.948-.9,6.948-2.961,0-1.436-.772-2.019-2.361-2.423l-5.54-1.39c-4.745-1.188-6.9-2.647-6.9-6.236,0-5.2,3.814-7.4,12.805-7.4a41.59,41.59,0,0,1,6.358.449l-.5,4.127c-2.452-.224-4.223-.314-5.994-.314-5.4,0-7.674.852-7.674,2.916,0,1.391.976,1.839,3.042,2.333l4.45,1.076c5.041,1.212,7.311,2.961,7.311,6.774,0,5.114-3.587,7.312-11.943,7.312A36.417,36.417,0,0,1,69.952,44.572Z"/><path class="3cf894db-16b1-42ae-bce4-b4aec1b095b3" d="M96.736,32.863c0-7.761,3.951-12.292,10.853-12.292,6.493,0,10.217,3.993,10.217,11.4,0,1.121-.046,2.108-.136,3.05H101.413c.84,3.971,3.883,6.056,8.719,6.056a29.314,29.314,0,0,0,5.9-.628l.59,4.172a37.069,37.069,0,0,1-7.038.628C101.368,45.244,96.736,40.848,96.736,32.863Zm4.5-1.48h12.215c0-4.262-2.18-6.64-5.813-6.64C103.911,24.743,101.618,27.144,101.232,31.383Z"/><path class="3cf894db-16b1-42ae-bce4-b4aec1b095b3" d="M122.7,40.893h5.359V24.923h-4.451v-3.9h8.356l.817,6.1h.545c.272-4.4,2.452-6.55,6.63-6.55,4.949,0,7.083,2.647,7.083,8.927h-4.767c0-3.454-1-4.889-3.315-4.889-4.087,0-6.085,3.589-6.085,9.959v6.325h5.9v3.9H122.7Z"/><path class="3cf894db-16b1-42ae-bce4-b4aec1b095b3" d="M149.944,21.02h5.131l6.584,19.738h.409l6.357-19.738h5.131L165.065,44.8h-6.4Z"/><path class="3cf894db-16b1-42ae-bce4-b4aec1b095b3" d="M177.546,38.381c0-5.025,3.951-7.806,10.9-7.806a22.861,22.861,0,0,1,4.541.382v-1.1c0-3.161-2.271-4.575-6.721-4.687l-5.767-.158.454-4.216,4.859.068c7.947.111,11.761,3.431,11.761,9.711v9.914l4.087.494V44.8l-7.72.224-.227-5.249h-.476c-.341,3.658-3.315,5.473-7.788,5.473C180.429,45.244,177.546,42.756,177.546,38.381Zm15.439-2.109V34.613a31.783,31.783,0,0,0-4.632-.225c-4.109,0-6.266,1.211-6.266,3.544,0,2.222,1.5,3.5,4.132,3.5C190.714,41.431,192.985,38.785,192.985,36.272Z"/><path class="3cf894db-16b1-42ae-bce4-b4aec1b095b3" d="M204.422,40.893h5.358V24.923h-4.45v-3.9h8.355l.817,6.1h.545c.273-4.4,2.452-6.55,6.63-6.55,4.949,0,7.084,2.647,7.084,8.927h-4.768c0-3.454-1-4.889-3.315-4.889-4.087,0-6.085,3.589-6.085,9.959v6.325h5.9v3.9H204.422Z"/><path class="3cf894db-16b1-42ae-bce4-b4aec1b095b3" d="M231.661,40.893h5.358V24.923h-4.45v-3.9h8.356l.817,6.1h.544c.273-4.4,2.453-6.55,6.63-6.55,4.95,0,7.084,2.647,7.084,8.927h-4.768c0-3.454-1-4.889-3.315-4.889-4.086,0-6.085,3.589-6.085,9.959v6.325h5.9v3.9H231.661Z"/></g></g></g></g></svg>