<svg xmlns="http://www.w3.org/2000/svg" width="134.94" height="17.895" viewBox="0 0 134.94 17.895"><defs><style>.\37 a43cccb-b9ce-43d3-b1da-c5850e093e13{fill:#fff;}</style></defs><title>servarr_wordmark (2)</title><g id="a86c7e37-559d-43ce-aa47-0d10e034b6a7" data-name="Layer 2"><g id="764e2615-e1fa-4357-bcf5-499fd48f056d" data-name="servarr"><g id="575146fa-610a-4a84-9edd-e1e3b1a30da4" data-name="servarr_wordmark"><path class="7a43cccb-b9ce-43d3-b1da-c5850e093e13" d="M0,17.407l.4-3.123a35.729,35.729,0,0,0,5.566.52c3.524,0,5.039-.65,5.039-2.147,0-1.041-.56-1.464-1.712-1.757L5.27,9.891C1.828,9.03.263,7.972.263,5.369.263,1.594,3.03,0,9.551,0a30.249,30.249,0,0,1,4.611.325L13.8,3.319c-1.779-.163-3.064-.228-4.348-.228-3.919,0-5.566.618-5.566,2.115,0,1.009.708,1.334,2.207,1.692l3.227.781c3.656.878,5.3,2.147,5.3,4.913,0,3.709-2.6,5.3-8.662,5.3A26.384,26.384,0,0,1,0,17.407Z"/><path class="7a43cccb-b9ce-43d3-b1da-c5850e093e13" d="M19.427,8.915C19.427,3.286,22.292,0,27.3,0c4.71,0,7.41,2.9,7.41,8.264,0,.814-.032,1.53-.1,2.213H22.819c.609,2.88,2.816,4.392,6.323,4.392a21.26,21.26,0,0,0,4.282-.455l.428,3.026a26.954,26.954,0,0,1-5.1.455C22.786,17.9,19.427,14.707,19.427,8.915Zm3.26-1.074h8.86c0-3.091-1.581-4.815-4.216-4.815C24.63,3.026,22.967,4.767,22.687,7.841Z"/><path class="7a43cccb-b9ce-43d3-b1da-c5850e093e13" d="M38.261,14.739h3.887V3.156H38.92V.325h6.06l.593,4.425h.4C46.166,1.562,47.747,0,50.777,0c3.589,0,5.137,1.92,5.137,6.475H52.456c0-2.5-.724-3.547-2.4-3.547-2.964,0-4.413,2.6-4.413,7.224v4.587H49.92V17.57H38.261Z"/><path class="7a43cccb-b9ce-43d3-b1da-c5850e093e13" d="M58.018.325H61.74l4.775,14.317h.3L71.422.325h3.722L68.985,17.57H64.341Z"/><path class="7a43cccb-b9ce-43d3-b1da-c5850e093e13" d="M78.038,12.917c0-3.644,2.865-5.661,7.9-5.661a16.581,16.581,0,0,1,3.293.277v-.8c0-2.293-1.646-3.319-4.874-3.4l-4.183-.115.33-3.058,3.524.049c5.764.081,8.53,2.489,8.53,7.044v7.19l2.964.358V17.57l-5.6.163-.165-3.807h-.345c-.247,2.652-2.4,3.969-5.649,3.969C80.129,17.9,78.038,16.09,78.038,12.917Zm11.2-1.529v-1.2a23.062,23.062,0,0,0-3.359-.163c-2.98,0-4.545.879-4.545,2.571,0,1.611,1.087,2.538,3,2.538C87.589,15.13,89.235,13.21,89.235,11.388Z"/><path class="7a43cccb-b9ce-43d3-b1da-c5850e093e13" d="M97.53,14.739h3.887V3.156H98.189V.325h6.06l.593,4.425h.395c.2-3.188,1.779-4.75,4.809-4.75,3.59,0,5.138,1.92,5.138,6.475h-3.459c0-2.5-.724-3.547-2.4-3.547-2.964,0-4.413,2.6-4.413,7.224v4.587h4.281V17.57H97.53Z"/><path class="7a43cccb-b9ce-43d3-b1da-c5850e093e13" d="M117.287,14.739h3.887V3.156h-3.228V.325h6.06L124.6,4.75h.395c.2-3.188,1.778-4.75,4.809-4.75,3.589,0,5.137,1.92,5.137,6.475h-3.458c0-2.5-.725-3.547-2.4-3.547-2.964,0-4.413,2.6-4.413,7.224v4.587h4.281V17.57H117.287Z"/></g></g></g></svg>