<svg height="40" version="1.1" width="40" xmlns="http://www.w3.org/2000/svg" xmlns:xlink="http://www.w3.org/1999/xlink" style="overflow: hidden; position: relative;"><desc>Created with Raphaël 2.2.0</desc><defs></defs><circle cx="20" cy="17" r="12" fill="#000000" stroke="#000" style=""></circle><path style="" fill="#ffffff" stroke="none" d="M9.089,13.133C9.435,13.459,9.779,13.883,10.132,14.360999999999999C10.183,14.287999999999998,10.231,14.216999999999999,10.282,14.142C10.793,13.392,11.372,12.543,12.021,11.721C12.124,11.588000000000001,12.232000000000001,11.476,12.337000000000002,11.35C11.850000000000001,10.778,11.313000000000002,10.23,10.665000000000001,9.758C9.663,9.02,8.354,8.506,6.899,8.517H0.593V12.120999999999999H6.9C7.777,12.138,8.333,12.422,9.089,13.133ZM22.753,16.082V18.338C21.831,18.336000000000002,20.303,18.336000000000002,19.87,18.336000000000002C18.59,18.306,17.75,17.898000000000003,16.876,17.188000000000002C16.498,16.877000000000002,16.136000000000003,16.488000000000003,15.779000000000002,16.055000000000003C15.511000000000001,16.431000000000004,15.241000000000001,16.819000000000003,14.966000000000001,17.223000000000003C14.632000000000001,17.711000000000002,14.288,18.213,13.929000000000002,18.707C13.840000000000002,18.828,13.740000000000002,18.953,13.646000000000003,19.076C15.101000000000003,20.604,17.119000000000003,21.922,19.848000000000003,21.938000000000002H22.753000000000004V24.194000000000003L26.268000000000004,22.168000000000003L29.789000000000005,20.138L26.268000000000004,18.110000000000003L22.753,16.082ZM16.876,13.27C17.75,12.558,18.59,12.152,19.87,12.122C20.303,12.122,21.831,12.122,22.753,12.12V14.376L26.268,12.35L29.789,10.322L26.268,8.293L22.753,6.265999999999999V8.52H19.848C16.555,8.54,14.285,10.45,12.806999999999999,12.341999999999999C11.300999999999998,14.253999999999998,10.209,16.270999999999997,9.088999999999999,17.323999999999998C8.332,18.033,7.777,18.32,6.9,18.336H0.593V21.939999999999998H6.9C8.355,21.950999999999997,9.664,21.438,10.666,20.697999999999997C11.678,19.962999999999997,12.438,19.046999999999997,13.120000000000001,18.124999999999996C14.461,16.267,15.574,14.34,16.876,13.27Z" transform="matrix(0.7,0,0,0.7,9.5573,6.569)" stroke-width="1.4285714285714286"></path></svg>