<svg height="40" version="1.1" width="40" xmlns="http://www.w3.org/2000/svg" xmlns:xlink="http://www.w3.org/1999/xlink" style="overflow: hidden; position: relative;"><desc>Created with Raphaël 2.2.0</desc><defs></defs><path style="" fill="#00ff00" stroke="none" d="M15.667,4.601C13.983,6.286,13.327,8.586,13.642,10.774000000000001L16.764,7.652000000000001C16.768,7.647000000000001,16.778,7.644000000000001,16.779999999999998,7.6400000000000015C16.99,7.237000000000002,17.243999999999996,6.851000000000002,17.581999999999997,6.514000000000001C19.355999999999998,4.738000000000001,22.232999999999997,4.739000000000001,24.009999999999998,6.514000000000001C25.784999999999997,8.287,25.787,11.166,24.011999999999997,12.943000000000001C23.671999999999997,13.283000000000001,23.284999999999997,13.536000000000001,22.880999999999997,13.747000000000002C22.876999999999995,13.749000000000002,22.874999999999996,13.753000000000002,22.870999999999995,13.757000000000001L19.747999999999994,16.880000000000003C21.935999999999993,17.196,24.239999999999995,16.540000000000003,25.923999999999992,14.857000000000003C28.755999999999993,12.025000000000002,28.75399999999999,7.434000000000003,25.923999999999992,4.602000000000002C23.09,1.77,18.499,1.77,15.667,4.601ZM14.557,22.067C14.348,22.472,14.095,22.858,13.756,23.198C11.981,24.972,9.100000000000001,24.972,7.325,23.198C5.550000000000001,21.424,5.550000000000001,18.545,7.325,16.768C7.664000000000001,16.43,8.05,16.177,8.453,15.968C8.456999999999999,15.962,8.458,15.956,8.463999999999999,15.952L11.584999999999999,12.829C9.398,12.513,7.095999999999999,13.171000000000001,5.412999999999999,14.853000000000002C2.5819999999999994,17.684,2.5829999999999993,22.276000000000003,5.412999999999999,25.108000000000004C8.245999999999999,27.939000000000004,12.837,27.939000000000004,15.669999999999998,25.108000000000004C17.354,23.424000000000003,18.011999999999997,21.122000000000003,17.692999999999998,18.933000000000003L14.567999999999998,22.056000000000004C14.565,22.063,14.561,22.065,14.557,22.067ZM9.441,18.885L11.638000000000002,21.082C12.175000000000002,21.619,13.055000000000001,21.619,13.591000000000001,21.082L21.893,12.780000000000001C22.432000000000002,12.244000000000002,22.432000000000002,11.363000000000001,21.895,10.828000000000001L19.695999999999998,8.631C19.159999999999997,8.092,18.279999999999998,8.092,17.744,8.629L9.442,16.932000000000002C8.904,17.469,8.904,18.349,9.441,18.885Z" transform="matrix(0.87,0,0,0.87,6.0369,0.9311)" stroke-width="1.1494252873563218"></path></svg>